<mxfile host="app.diagrams.net" modified="2021-11-04T18:26:30.230Z" agent="5.0 (Windows NT 10.0; Win64; x64) AppleWebKit/537.36 (KHTML, like Gecko) Chrome/95.0.4638.69 Safari/537.36" etag="Qxz6ul_lUCp66NQjxI2P" version="14.8.0" type="github">
  <diagram name="Page-1" id="b5b7bab2-c9e2-2cf4-8b2a-24fd1a2a6d21">
    <mxGraphModel dx="1662" dy="754" grid="1" gridSize="10" guides="1" tooltips="1" connect="1" arrows="1" fold="1" page="1" pageScale="1" pageWidth="827" pageHeight="1169" background="none" math="0" shadow="0">
      <root>
        <mxCell id="0" />
        <mxCell id="1" parent="0" />
        <mxCell id="6e0c8c40b5770093-73" value="&amp;lt;&amp;lt;model&amp;gt;&amp;gt;" style="text;html=1;align=left;verticalAlign=top;spacingTop=-4;fontSize=10;fontFamily=Verdana" parent="1" vertex="1">
          <mxGeometry x="327.5" y="114.5" width="130" height="20" as="geometry" />
        </mxCell>
        <mxCell id="LQkSMXqd-ARVDpghZ2y5-2" value="" style="rounded=0;whiteSpace=wrap;html=1;" vertex="1" parent="1">
          <mxGeometry x="414" y="400" width="120" height="60" as="geometry" />
        </mxCell>
        <mxCell id="LQkSMXqd-ARVDpghZ2y5-3" value="" style="rounded=0;whiteSpace=wrap;html=1;" vertex="1" parent="1">
          <mxGeometry x="534" y="400" width="120" height="60" as="geometry" />
        </mxCell>
        <mxCell id="LQkSMXqd-ARVDpghZ2y5-4" value="" style="rounded=0;whiteSpace=wrap;html=1;" vertex="1" parent="1">
          <mxGeometry x="190" y="550" width="120" height="60" as="geometry" />
        </mxCell>
        <mxCell id="LQkSMXqd-ARVDpghZ2y5-5" value="" style="rounded=0;whiteSpace=wrap;html=1;" vertex="1" parent="1">
          <mxGeometry x="310" y="550" width="120" height="60" as="geometry" />
        </mxCell>
        <mxCell id="LQkSMXqd-ARVDpghZ2y5-6" value="" style="rounded=0;whiteSpace=wrap;html=1;" vertex="1" parent="1">
          <mxGeometry x="520" y="550" width="120" height="60" as="geometry" />
        </mxCell>
        <mxCell id="LQkSMXqd-ARVDpghZ2y5-7" value="" style="rounded=0;whiteSpace=wrap;html=1;" vertex="1" parent="1">
          <mxGeometry x="640" y="550" width="120" height="60" as="geometry" />
        </mxCell>
        <mxCell id="LQkSMXqd-ARVDpghZ2y5-8" value="" style="rounded=0;whiteSpace=wrap;html=1;" vertex="1" parent="1">
          <mxGeometry x="760" y="550" width="120" height="60" as="geometry" />
        </mxCell>
        <mxCell id="LQkSMXqd-ARVDpghZ2y5-9" value="" style="rounded=0;whiteSpace=wrap;html=1;" vertex="1" parent="1">
          <mxGeometry x="1144" y="400" width="120" height="60" as="geometry" />
        </mxCell>
        <mxCell id="LQkSMXqd-ARVDpghZ2y5-10" value="" style="rounded=0;whiteSpace=wrap;html=1;" vertex="1" parent="1">
          <mxGeometry x="1264" y="400" width="120" height="60" as="geometry" />
        </mxCell>
        <mxCell id="LQkSMXqd-ARVDpghZ2y5-11" value="" style="rounded=0;whiteSpace=wrap;html=1;" vertex="1" parent="1">
          <mxGeometry x="920" y="550" width="120" height="60" as="geometry" />
        </mxCell>
        <mxCell id="LQkSMXqd-ARVDpghZ2y5-12" value="" style="rounded=0;whiteSpace=wrap;html=1;" vertex="1" parent="1">
          <mxGeometry x="1040" y="550" width="120" height="60" as="geometry" />
        </mxCell>
        <mxCell id="LQkSMXqd-ARVDpghZ2y5-13" value="" style="rounded=0;whiteSpace=wrap;html=1;" vertex="1" parent="1">
          <mxGeometry x="1250" y="550" width="120" height="60" as="geometry" />
        </mxCell>
        <mxCell id="LQkSMXqd-ARVDpghZ2y5-14" value="" style="rounded=0;whiteSpace=wrap;html=1;" vertex="1" parent="1">
          <mxGeometry x="1370" y="550" width="120" height="60" as="geometry" />
        </mxCell>
        <mxCell id="LQkSMXqd-ARVDpghZ2y5-15" value="" style="rounded=0;whiteSpace=wrap;html=1;" vertex="1" parent="1">
          <mxGeometry x="1490" y="550" width="120" height="60" as="geometry" />
        </mxCell>
        <mxCell id="LQkSMXqd-ARVDpghZ2y5-16" value="" style="rounded=0;whiteSpace=wrap;html=1;" vertex="1" parent="1">
          <mxGeometry x="870" y="240" width="120" height="60" as="geometry" />
        </mxCell>
        <mxCell id="LQkSMXqd-ARVDpghZ2y5-17" value="" style="rounded=0;whiteSpace=wrap;html=1;" vertex="1" parent="1">
          <mxGeometry x="760" y="240" width="120" height="60" as="geometry" />
        </mxCell>
        <mxCell id="LQkSMXqd-ARVDpghZ2y5-18" value="" style="rounded=0;whiteSpace=wrap;html=1;" vertex="1" parent="1">
          <mxGeometry x="880" y="240" width="120" height="60" as="geometry" />
        </mxCell>
        <mxCell id="LQkSMXqd-ARVDpghZ2y5-19" value="" style="endArrow=classic;html=1;entryX=0.25;entryY=0;entryDx=0;entryDy=0;exitX=-0.017;exitY=0.65;exitDx=0;exitDy=0;exitPerimeter=0;" edge="1" parent="1" source="LQkSMXqd-ARVDpghZ2y5-17" target="LQkSMXqd-ARVDpghZ2y5-3">
          <mxGeometry width="50" height="50" relative="1" as="geometry">
            <mxPoint x="850" y="310" as="sourcePoint" />
            <mxPoint x="900" y="390" as="targetPoint" />
            <Array as="points">
              <mxPoint x="564" y="280" />
            </Array>
          </mxGeometry>
        </mxCell>
        <mxCell id="LQkSMXqd-ARVDpghZ2y5-20" value="" style="endArrow=classic;html=1;entryX=0.25;entryY=0;entryDx=0;entryDy=0;exitX=0;exitY=0.5;exitDx=0;exitDy=0;" edge="1" parent="1">
          <mxGeometry width="50" height="50" relative="1" as="geometry">
            <mxPoint x="414" y="420" as="sourcePoint" />
            <mxPoint x="218" y="550" as="targetPoint" />
            <Array as="points">
              <mxPoint x="220" y="420" />
            </Array>
          </mxGeometry>
        </mxCell>
        <mxCell id="LQkSMXqd-ARVDpghZ2y5-21" value="" style="endArrow=classic;html=1;exitX=1;exitY=0.5;exitDx=0;exitDy=0;" edge="1" parent="1" source="LQkSMXqd-ARVDpghZ2y5-18">
          <mxGeometry width="50" height="50" relative="1" as="geometry">
            <mxPoint x="1000" y="280" as="sourcePoint" />
            <mxPoint x="1260" y="398" as="targetPoint" />
            <Array as="points">
              <mxPoint x="1260" y="270" />
            </Array>
          </mxGeometry>
        </mxCell>
        <mxCell id="LQkSMXqd-ARVDpghZ2y5-23" value="" style="endArrow=classic;html=1;" edge="1" parent="1">
          <mxGeometry width="50" height="50" relative="1" as="geometry">
            <mxPoint x="1390" y="422" as="sourcePoint" />
            <mxPoint x="1560" y="550" as="targetPoint" />
            <Array as="points">
              <mxPoint x="1560" y="422" />
            </Array>
          </mxGeometry>
        </mxCell>
        <mxCell id="LQkSMXqd-ARVDpghZ2y5-24" value="" style="endArrow=classic;html=1;exitX=0;exitY=0.5;exitDx=0;exitDy=0;" edge="1" parent="1">
          <mxGeometry width="50" height="50" relative="1" as="geometry">
            <mxPoint x="1144" y="430" as="sourcePoint" />
            <mxPoint x="948" y="550" as="targetPoint" />
            <Array as="points">
              <mxPoint x="950" y="430" />
            </Array>
          </mxGeometry>
        </mxCell>
        <mxCell id="LQkSMXqd-ARVDpghZ2y5-25" value="" style="endArrow=classic;html=1;" edge="1" parent="1">
          <mxGeometry width="50" height="50" relative="1" as="geometry">
            <mxPoint x="654" y="422" as="sourcePoint" />
            <mxPoint x="824" y="550" as="targetPoint" />
            <Array as="points">
              <mxPoint x="824" y="422" />
            </Array>
          </mxGeometry>
        </mxCell>
        <mxCell id="LQkSMXqd-ARVDpghZ2y5-26" value="w3" style="text;html=1;strokeColor=none;fillColor=none;align=center;verticalAlign=middle;whiteSpace=wrap;rounded=0;" vertex="1" parent="1">
          <mxGeometry x="450" y="420" width="40" height="20" as="geometry" />
        </mxCell>
        <mxCell id="LQkSMXqd-ARVDpghZ2y5-27" value="w1" style="text;html=1;strokeColor=none;fillColor=none;align=center;verticalAlign=middle;whiteSpace=wrap;rounded=0;" vertex="1" parent="1">
          <mxGeometry x="790" y="260" width="40" height="20" as="geometry" />
        </mxCell>
        <mxCell id="LQkSMXqd-ARVDpghZ2y5-28" value="c" style="text;html=1;strokeColor=none;fillColor=none;align=center;verticalAlign=middle;whiteSpace=wrap;rounded=0;" vertex="1" parent="1">
          <mxGeometry x="800" y="570" width="40" height="20" as="geometry" />
        </mxCell>
        <mxCell id="LQkSMXqd-ARVDpghZ2y5-29" value="b" style="text;html=1;strokeColor=none;fillColor=none;align=center;verticalAlign=middle;whiteSpace=wrap;rounded=0;" vertex="1" parent="1">
          <mxGeometry x="670" y="575" width="40" height="20" as="geometry" />
        </mxCell>
        <mxCell id="LQkSMXqd-ARVDpghZ2y5-30" value="a" style="text;html=1;strokeColor=none;fillColor=none;align=center;verticalAlign=middle;whiteSpace=wrap;rounded=0;" vertex="1" parent="1">
          <mxGeometry x="550" y="570" width="40" height="20" as="geometry" />
        </mxCell>
        <mxCell id="LQkSMXqd-ARVDpghZ2y5-31" value="e" style="text;html=1;strokeColor=none;fillColor=none;align=center;verticalAlign=middle;whiteSpace=wrap;rounded=0;" vertex="1" parent="1">
          <mxGeometry x="350" y="575" width="40" height="20" as="geometry" />
        </mxCell>
        <mxCell id="LQkSMXqd-ARVDpghZ2y5-32" value="d" style="text;html=1;strokeColor=none;fillColor=none;align=center;verticalAlign=middle;whiteSpace=wrap;rounded=0;" vertex="1" parent="1">
          <mxGeometry x="220" y="570" width="40" height="20" as="geometry" />
        </mxCell>
        <mxCell id="LQkSMXqd-ARVDpghZ2y5-34" value="w1" style="text;html=1;strokeColor=none;fillColor=none;align=center;verticalAlign=middle;whiteSpace=wrap;rounded=0;" vertex="1" parent="1">
          <mxGeometry x="910" y="260" width="40" height="20" as="geometry" />
        </mxCell>
        <mxCell id="LQkSMXqd-ARVDpghZ2y5-35" value="f" style="text;html=1;strokeColor=none;fillColor=none;align=center;verticalAlign=middle;whiteSpace=wrap;rounded=0;" vertex="1" parent="1">
          <mxGeometry x="1280" y="575" width="40" height="20" as="geometry" />
        </mxCell>
        <mxCell id="LQkSMXqd-ARVDpghZ2y5-36" value="j" style="text;html=1;strokeColor=none;fillColor=none;align=center;verticalAlign=middle;whiteSpace=wrap;rounded=0;" vertex="1" parent="1">
          <mxGeometry x="1070" y="575" width="40" height="20" as="geometry" />
        </mxCell>
        <mxCell id="LQkSMXqd-ARVDpghZ2y5-37" value="i" style="text;html=1;strokeColor=none;fillColor=none;align=center;verticalAlign=middle;whiteSpace=wrap;rounded=0;" vertex="1" parent="1">
          <mxGeometry x="960" y="570" width="40" height="20" as="geometry" />
        </mxCell>
        <mxCell id="LQkSMXqd-ARVDpghZ2y5-38" value="w6" style="text;html=1;strokeColor=none;fillColor=none;align=center;verticalAlign=middle;whiteSpace=wrap;rounded=0;" vertex="1" parent="1">
          <mxGeometry x="1304" y="420" width="40" height="20" as="geometry" />
        </mxCell>
        <mxCell id="LQkSMXqd-ARVDpghZ2y5-39" value="w5" style="text;html=1;strokeColor=none;fillColor=none;align=center;verticalAlign=middle;whiteSpace=wrap;rounded=0;" vertex="1" parent="1">
          <mxGeometry x="1170" y="420" width="40" height="20" as="geometry" />
        </mxCell>
        <mxCell id="LQkSMXqd-ARVDpghZ2y5-44" value="g" style="text;html=1;strokeColor=none;fillColor=none;align=center;verticalAlign=middle;whiteSpace=wrap;rounded=0;" vertex="1" parent="1">
          <mxGeometry x="1400" y="570" width="40" height="20" as="geometry" />
        </mxCell>
        <mxCell id="LQkSMXqd-ARVDpghZ2y5-45" value="h" style="text;html=1;strokeColor=none;fillColor=none;align=center;verticalAlign=middle;whiteSpace=wrap;rounded=0;" vertex="1" parent="1">
          <mxGeometry x="1530" y="575" width="40" height="20" as="geometry" />
        </mxCell>
        <mxCell id="LQkSMXqd-ARVDpghZ2y5-46" value="w4" style="text;html=1;strokeColor=none;fillColor=none;align=center;verticalAlign=middle;whiteSpace=wrap;rounded=0;" vertex="1" parent="1">
          <mxGeometry x="570" y="420" width="40" height="20" as="geometry" />
        </mxCell>
        <mxCell id="LQkSMXqd-ARVDpghZ2y5-47" value="" style="whiteSpace=wrap;html=1;aspect=fixed;" vertex="1" parent="1">
          <mxGeometry x="400" y="760" width="300" height="300" as="geometry" />
        </mxCell>
        <mxCell id="LQkSMXqd-ARVDpghZ2y5-48" value="" style="whiteSpace=wrap;html=1;aspect=fixed;" vertex="1" parent="1">
          <mxGeometry x="800" y="770" width="220" height="220" as="geometry" />
        </mxCell>
        <mxCell id="LQkSMXqd-ARVDpghZ2y5-49" value="" style="whiteSpace=wrap;html=1;aspect=fixed;" vertex="1" parent="1">
          <mxGeometry x="600" y="760" width="100" height="100" as="geometry" />
        </mxCell>
        <mxCell id="LQkSMXqd-ARVDpghZ2y5-50" value="" style="whiteSpace=wrap;html=1;aspect=fixed;" vertex="1" parent="1">
          <mxGeometry x="540" y="900" width="160" height="160" as="geometry" />
        </mxCell>
        <mxCell id="LQkSMXqd-ARVDpghZ2y5-51" value="" style="whiteSpace=wrap;html=1;aspect=fixed;" vertex="1" parent="1">
          <mxGeometry x="800" y="770" width="70" height="70" as="geometry" />
        </mxCell>
        <mxCell id="LQkSMXqd-ARVDpghZ2y5-52" value="" style="whiteSpace=wrap;html=1;aspect=fixed;" vertex="1" parent="1">
          <mxGeometry x="810" y="890" width="100" height="100" as="geometry" />
        </mxCell>
        <mxCell id="LQkSMXqd-ARVDpghZ2y5-53" value="w1" style="text;html=1;strokeColor=none;fillColor=none;align=center;verticalAlign=middle;whiteSpace=wrap;rounded=0;" vertex="1" parent="1">
          <mxGeometry x="480" y="870" width="40" height="20" as="geometry" />
        </mxCell>
        <mxCell id="LQkSMXqd-ARVDpghZ2y5-54" value="w4" style="text;html=1;strokeColor=none;fillColor=none;align=center;verticalAlign=middle;whiteSpace=wrap;rounded=0;" vertex="1" parent="1">
          <mxGeometry x="654" y="770" width="40" height="20" as="geometry" />
        </mxCell>
        <mxCell id="LQkSMXqd-ARVDpghZ2y5-55" value="a,b,c" style="text;html=1;strokeColor=none;fillColor=none;align=center;verticalAlign=middle;whiteSpace=wrap;rounded=0;" vertex="1" parent="1">
          <mxGeometry x="560" y="760" width="40" height="20" as="geometry" />
        </mxCell>
        <mxCell id="LQkSMXqd-ARVDpghZ2y5-56" value="w3" style="text;html=1;strokeColor=none;fillColor=none;align=center;verticalAlign=middle;whiteSpace=wrap;rounded=0;" vertex="1" parent="1">
          <mxGeometry x="580" y="990" width="40" height="20" as="geometry" />
        </mxCell>
        <mxCell id="LQkSMXqd-ARVDpghZ2y5-57" value="w2" style="text;html=1;strokeColor=none;fillColor=none;align=center;verticalAlign=middle;whiteSpace=wrap;rounded=0;" vertex="1" parent="1">
          <mxGeometry x="930" y="840" width="40" height="20" as="geometry" />
        </mxCell>
        <mxCell id="LQkSMXqd-ARVDpghZ2y5-58" value="w6" style="text;html=1;strokeColor=none;fillColor=none;align=center;verticalAlign=middle;whiteSpace=wrap;rounded=0;" vertex="1" parent="1">
          <mxGeometry x="810" y="800" width="40" height="20" as="geometry" />
        </mxCell>
        <mxCell id="LQkSMXqd-ARVDpghZ2y5-59" value="w1" style="text;html=1;strokeColor=none;fillColor=none;align=center;verticalAlign=middle;whiteSpace=wrap;rounded=0;" vertex="1" parent="1">
          <mxGeometry x="840" y="940" width="40" height="20" as="geometry" />
        </mxCell>
        <mxCell id="LQkSMXqd-ARVDpghZ2y5-62" value="d,c" style="text;html=1;strokeColor=none;fillColor=none;align=center;verticalAlign=middle;whiteSpace=wrap;rounded=0;" vertex="1" parent="1">
          <mxGeometry x="490" y="960" width="40" height="20" as="geometry" />
        </mxCell>
        <mxCell id="LQkSMXqd-ARVDpghZ2y5-63" value="f,g,h" style="text;html=1;strokeColor=none;fillColor=none;align=center;verticalAlign=middle;whiteSpace=wrap;rounded=0;" vertex="1" parent="1">
          <mxGeometry x="880" y="780" width="40" height="20" as="geometry" />
        </mxCell>
        <mxCell id="LQkSMXqd-ARVDpghZ2y5-64" value="i,j" style="text;html=1;strokeColor=none;fillColor=none;align=center;verticalAlign=middle;whiteSpace=wrap;rounded=0;" vertex="1" parent="1">
          <mxGeometry x="910" y="940" width="40" height="20" as="geometry" />
        </mxCell>
      </root>
    </mxGraphModel>
  </diagram>
</mxfile>
